<svg width="200" height="200" viewBox="0 0 200 200" fill="none" xmlns="http://www.w3.org/2000/svg">
<path d="M100 200C155.219 200 200 155.225 200 100C200 44.775 155.225 0 100 0C44.775 0 0 44.775 0 100C0 155.225 44.7812 200 100 200ZM53.4 78.3437C58.0625 73.6812 65.6063 73.6812 70.2688 78.3437L99.9313 108.35L129.594 78.3437C134.256 73.6812 141.8 73.6812 146.463 78.3437C151.1 83.0562 151.125 90.675 146.463 95.3875L108.35 133.862C103.713 138.525 96.1438 138.525 91.4875 133.862L53.4 95.3875C48.7375 90.675 48.7375 83.0562 53.4 78.3437Z" fill="#FFFF00"/>
</svg>
