<svg width="200" height="200" viewBox="0 0 200 200" fill="none" xmlns="http://www.w3.org/2000/svg">
<path d="M142.105 119.579C145.263 116.421 145.263 111.368 142.105 108.421C138.947 105.263 133.895 105.263 130.947 108.421L108 131.368L108 49.8946C108 45.4736 104.421 41.8946 99.9999 41.8946C95.5789 41.8946 91.9999 45.4736 91.9999 49.8946L91.9999 131.158L69.0526 108.21C65.8947 105.053 60.8421 105.053 57.8947 108.21C56.421 109.684 55.5789 111.789 55.5789 113.895C55.5789 116 56.421 117.895 57.8947 119.579L94.3157 156C95.7894 157.474 97.8947 158.316 99.9999 158.316C102.105 158.316 104.21 157.474 105.684 156L142.105 119.579Z" fill="#FFFF00"/>
<path d="M200 100C200 44.8421 155.158 -7.15256e-06 100 -7.15256e-06C44.8421 -7.15256e-06 -7.15256e-06 44.8421 -7.15256e-06 100C-7.15256e-06 155.158 44.8421 200 100 200C155.158 200 200 155.158 200 100ZM15.7895 100C15.7895 53.6842 53.6842 15.7895 100 15.7895C146.316 15.7895 184.211 53.6842 184.211 100C184.211 146.316 146.316 184.211 100 184.211C53.6842 184.211 15.7895 146.316 15.7895 100Z" fill="#FFFF00"/>
</svg>
