<svg width="24" height="24" viewBox="0 0 24 24" fill="none" xmlns="http://www.w3.org/2000/svg">
<path d="M2.92515 21.6009L1 0H22.1613L20.2335 21.5974L11.5678 24L2.92515 21.6009Z" fill="#1572B6"/>
<path d="M11.5806 22.164L18.5835 20.2226L20.2309 1.7666H11.5806V22.164Z" fill="#33A9DC"/>
<path d="M11.5806 9.59239H15.0863L15.328 6.87953H11.5806V4.2301H11.59H18.2235L18.16 4.94067L17.5095 12.2418H11.5806V9.59239Z" fill="white"/>
<path d="M11.5972 16.4726L11.5852 16.476L8.63492 15.6789L8.44635 13.566H7.01234H5.78662L6.15777 17.7258L11.5844 19.2326L11.5972 19.2292V16.4726Z" fill="#EBEBEB"/>
<path d="M14.8609 12.1295L14.542 15.6772L11.5874 16.4744V19.2309L17.0183 17.7258L17.0586 17.2784L17.5189 12.1295H14.8609Z" fill="white"/>
<path d="M11.59 4.2301V5.87582V6.87267V6.87953H5.19913H5.19056L5.13741 6.28382L5.01655 4.94067L4.95312 4.2301H11.59Z" fill="#EBEBEB"/>
<path d="M11.5807 9.59241V11.2381V12.235V12.2418H8.67581H8.66724L8.61409 11.6461L8.49409 10.303L8.43066 9.59241H11.5807Z" fill="#EBEBEB"/>
</svg>
