<svg width="24" height="24" viewBox="0 0 24 24" fill="none" xmlns="http://www.w3.org/2000/svg">
<path d="M7.90929 15.21L9.58963 15.3337V16.769C9.58963 16.769 6.44994 19.8613 1.875 16.2H3.434L3.60677 14.7897C3.60677 14.7897 5.38596 16.5954 7.90929 15.21Z" fill="#0D2C40"/>
<path d="M2.21897 8.57935C2.21897 8.57935 -1.19556 11.7585 1.60019 15.8288L3.1608 15.9774L3.30947 14.4682C3.30947 14.4682 1.87503 12.1177 3.72815 10.2621L2.06628 10.1335L2.21897 8.57935Z" fill="#0D2C40"/>
<path d="M2.59005 8.35677C2.59005 8.35677 6.84918 5.61081 10.0869 8.92573L8.65167 8.82689L8.503 10.4341C8.503 10.4341 6.87007 8.45561 4.14905 9.98972L2.49121 9.91579L2.59005 8.35677Z" fill="#0D2C40"/>
<path d="M8.87451 10.8311L8.97336 9.17322L10.4825 9.32189L15.035 14.3935H13.4768L13.3281 15.8039L8.87451 10.8311Z" fill="#0D2C40"/>
<path d="M8.33057 14.9386L14.0948 8.57959L15.6289 8.72826L15.5301 10.2873L9.86465 16.5957L9.88876 14.9627L8.33057 14.9386Z" fill="#02D35F"/>
<path d="M14.3174 8.35051L15.9133 8.4807L15.8024 10.0027C15.8024 10.0027 18.1586 8.49918 19.8848 10.0952L21.5724 10.1691L21.7242 8.68723C21.7242 8.68723 19.0868 5.71385 14.3174 8.35051Z" fill="#02D35F"/>
<path d="M20.1259 10.3362L21.8134 10.435L21.9436 8.94434C21.9436 8.94434 25.6362 13.058 21.6463 16.5956L20.0142 16.4823L20.1628 14.7947C20.1628 14.7947 22.3711 12.3219 20.1259 10.3362Z" fill="#02D35F"/>
<path d="M15.4314 14.7899L13.727 14.6412L13.6313 16.1448C13.6313 16.1448 16.6561 19.6333 21.2206 16.8496L19.6616 16.7234L19.8103 15.1089C19.8103 15.1089 17.8246 16.7009 15.4314 14.7899Z" fill="#02D35F"/>
<path d="M17.5881 12.1909V12.7534C17.5832 12.7753 17.5808 12.7977 17.5809 12.8201C17.5808 12.8428 17.5832 12.8655 17.5881 12.8876V13.7941H17.167V12.1869L17.5881 12.1909Z" fill="#0D2C40"/>
<path d="M17.9581 12.1909C17.8195 12.2089 17.6899 12.2699 17.5877 12.3653C17.5172 12.42 17.4589 12.4887 17.4164 12.5672C17.3739 12.6456 17.3482 12.7321 17.341 12.821C17.3472 12.9139 17.3723 13.0046 17.4147 13.0875C17.4571 13.1704 17.516 13.2437 17.5877 13.3031C17.6772 13.3885 17.7931 13.4409 17.9163 13.4518C18.3077 13.4614 18.5006 13.1247 18.5006 12.8218C18.5006 12.5188 18.2611 12.1733 17.9581 12.1909ZM17.8304 13.0998C17.7721 13.0972 17.7165 13.0749 17.6727 13.0365C17.6289 12.9981 17.5995 12.9459 17.5893 12.8885C17.5844 12.8663 17.582 12.8437 17.582 12.821C17.582 12.7985 17.5844 12.7762 17.5893 12.7543C17.5995 12.6969 17.6289 12.6447 17.6727 12.6063C17.7165 12.5678 17.7721 12.5455 17.8304 12.5429C17.8997 12.5494 17.9642 12.5815 18.0111 12.633C18.0581 12.6845 18.0841 12.7517 18.0841 12.8214C18.0841 12.891 18.0581 12.9582 18.0111 13.0097C17.9642 13.0612 17.8997 13.0934 17.8304 13.0998ZM19.3379 12.6707C19.2769 12.6514 19.051 12.616 19.051 12.5309C19.051 12.4826 19.1202 12.477 19.1539 12.4786C19.2503 12.4786 19.395 12.5935 19.4753 12.5718C19.5469 12.5534 19.6096 12.3685 19.6361 12.3058C19.4331 12.19 19.1967 12.1469 18.9659 12.1837C18.9088 12.1946 18.8548 12.2177 18.8076 12.2514C18.7604 12.2851 18.721 12.3287 18.6922 12.3791C18.6634 12.4295 18.6459 12.4856 18.6408 12.5434C18.6358 12.6012 18.6433 12.6594 18.6629 12.7141C18.765 12.9785 19.0784 12.8748 19.2367 13.0355C19.3018 13.103 19.1676 13.1336 19.1234 13.132C18.9874 13.1118 18.8575 13.0624 18.7425 12.9873C18.7031 13.0436 18.5817 13.1778 18.5962 13.2477C18.6107 13.3176 18.7706 13.3698 18.8373 13.3907C19.0607 13.4631 19.4054 13.4904 19.5734 13.2871C19.7831 13.0428 19.5999 12.7559 19.3379 12.6707ZM16.0681 11.7457C15.8932 11.7457 15.7223 11.7976 15.5769 11.8947C15.4316 11.9918 15.3183 12.1299 15.2514 12.2914C15.1845 12.4529 15.167 12.6307 15.2011 12.8022C15.2352 12.9736 15.3194 13.1311 15.443 13.2548C15.5666 13.3784 15.7241 13.4626 15.8956 13.4967C16.0671 13.5308 16.2448 13.5133 16.4063 13.4464C16.5679 13.3795 16.7059 13.2662 16.803 13.1208C16.9002 12.9754 16.952 12.8045 16.952 12.6297C16.952 12.3953 16.8589 12.1704 16.6931 12.0046C16.5273 11.8389 16.3025 11.7457 16.0681 11.7457ZM16.0681 13.0805C15.9784 13.0804 15.8909 13.0537 15.8165 13.0038C15.742 12.9539 15.6841 12.883 15.6499 12.8002C15.6157 12.7174 15.6068 12.6262 15.6244 12.5384C15.642 12.4505 15.6852 12.3698 15.7487 12.3065C15.8121 12.2432 15.8928 12.2001 15.9807 12.1827C16.0686 12.1653 16.1597 12.1743 16.2425 12.2086C16.3253 12.243 16.396 12.3011 16.4458 12.3756C16.4955 12.4501 16.5221 12.5377 16.5221 12.6273C16.5221 12.687 16.5103 12.746 16.4874 12.8011C16.4646 12.8562 16.431 12.9062 16.3888 12.9484C16.3465 12.9905 16.2964 13.0238 16.2412 13.0465C16.186 13.0692 16.1269 13.0807 16.0672 13.0805H16.0681Z" fill="#0D2C40"/>
<path d="M7.69652 12.1707H7.19266L7.72545 13.5642H7.95528V12.9703L7.69652 12.1707ZM8.21485 12.1731H8.71871L8.18511 13.5666H7.95528V12.9727L8.21485 12.1731ZM5.25034 11.9746C5.08112 11.8571 4.88476 11.7847 4.67978 11.7641C4.40816 11.7384 4.11725 11.7713 3.86572 11.7713V13.5626H3.87778C3.92599 13.5682 3.97421 13.573 4.02323 13.5762C4.21638 13.5922 4.41058 13.5906 4.60343 13.5714C4.97229 13.5304 5.20935 13.4107 5.35481 13.2548C5.48369 13.1097 5.55638 12.9233 5.55973 12.7292V12.6866V12.6641C5.55651 12.4094 5.48338 12.153 5.25034 11.9746ZM4.8405 13.0692C4.68862 13.1543 4.50379 13.1335 4.33664 13.1335V12.2005C4.51423 12.2005 4.71433 12.1771 4.87023 12.2864C5.12899 12.4689 5.11935 12.9117 4.83809 13.0692H4.8405ZM6.97167 13.209C6.93068 13.1744 6.87845 13.1158 6.823 13.1061C6.7346 13.0941 6.62451 13.213 6.52647 13.2227C6.37378 13.2379 6.26369 13.1326 6.20502 13.0057H7.134C7.134 12.7485 7.1123 12.4777 6.89291 12.3009C6.48548 11.9682 5.81688 12.2141 5.74215 12.7389C5.66179 13.2918 6.09654 13.6486 6.62612 13.5795C6.75743 13.5609 6.88069 13.5051 6.98131 13.4187C7.01747 13.3866 7.07051 13.3424 7.04399 13.2902C7.02505 13.2589 7.00053 13.2314 6.97167 13.209ZM6.67514 12.7533H6.20101C6.21125 12.6979 6.24057 12.6479 6.28387 12.6118C6.32718 12.5758 6.38174 12.5561 6.43807 12.5561C6.49441 12.5561 6.54896 12.5758 6.59227 12.6118C6.63557 12.6479 6.66489 12.6979 6.67514 12.7533Z" fill="#02D35F"/>
</svg>
