<svg width="90" height="90" viewBox="0 0 90 90" fill="none" xmlns="http://www.w3.org/2000/svg">
<path d="M88.6298 50.22H77.0998C76.4598 46.94 73.5698 44.46 70.1098 44.46C66.6498 44.46 63.7498 46.94 63.1098 50.22H51.5898C50.8398 50.22 50.2298 50.83 50.2298 51.58V64.34C50.2298 65.09 50.8398 65.7 51.5898 65.7C54.0198 65.7 55.9898 67.67 55.9898 70.1C55.9898 72.53 54.0198 74.5 51.5898 74.5C50.8398 74.5 50.2298 75.11 50.2298 75.86V88.62C50.2298 89.37 50.8398 89.98 51.5898 89.98H88.6298C89.3798 89.98 89.9898 89.37 89.9898 88.62V51.59C89.9898 50.83 89.3798 50.22 88.6298 50.22ZM87.2698 87.27H52.9498V77.1C56.2298 76.46 58.7098 73.57 58.7098 70.11C58.7098 66.65 56.2298 63.75 52.9498 63.12V52.95H64.3498C65.0998 52.95 65.7098 52.34 65.7098 51.59C65.7098 49.16 67.6798 47.19 70.1098 47.19C72.5398 47.19 74.5098 49.16 74.5098 51.59C74.5098 52.34 75.1198 52.95 75.8698 52.95H87.2698V87.27ZM88.6298 0.0100098H51.5898C50.8398 0.0100098 50.2298 0.620009 50.2298 1.37001V12.9C46.9498 13.54 44.4698 16.43 44.4698 19.89C44.4698 23.35 46.9498 26.25 50.2298 26.88V38.41C50.2298 39.16 50.8398 39.77 51.5898 39.77H64.3498C65.0998 39.77 65.7098 39.16 65.7098 38.41C65.7098 35.98 67.6798 34.01 70.1098 34.01C72.5398 34.01 74.5098 35.98 74.5098 38.41C74.5098 39.16 75.1198 39.77 75.8698 39.77H88.6298C89.3798 39.77 89.9898 39.16 89.9898 38.41V1.37001C89.9898 0.620009 89.3798 0.0100098 88.6298 0.0100098ZM87.2698 37.05H77.0998C76.4598 33.77 73.5698 31.29 70.1098 31.29C66.6498 31.29 63.7498 33.77 63.1098 37.05H52.9498V25.65C52.9498 24.9 52.3398 24.29 51.5898 24.29C49.1598 24.29 47.1898 22.32 47.1898 19.89C47.1898 17.46 49.1598 15.49 51.5898 15.49C52.3398 15.49 52.9498 14.88 52.9498 14.13V2.73001H87.2698V37.05ZM39.7798 63.11V51.59C39.7798 50.84 39.1698 50.23 38.4198 50.23H25.6498C24.8998 50.23 24.2898 50.84 24.2898 51.59C24.2898 54.02 22.3198 55.99 19.8898 55.99C17.4598 55.99 15.4898 54.02 15.4898 51.59C15.4898 50.84 14.8798 50.23 14.1298 50.23H1.36977C0.619765 50.23 0.00976562 50.84 0.00976562 51.59V88.63C0.00976562 89.38 0.619765 89.99 1.36977 89.99H38.4098C39.1598 89.99 39.7698 89.38 39.7698 88.63V77.1C43.0498 76.46 45.5298 73.57 45.5298 70.11C45.5398 66.64 43.0598 63.75 39.7798 63.11ZM38.4098 74.51C37.6598 74.51 37.0498 75.12 37.0498 75.87V87.27H2.72977V52.95H12.8998C13.5398 56.23 16.4298 58.71 19.8898 58.71C23.3498 58.71 26.2498 56.23 26.8798 52.95H37.0398V64.35C37.0398 65.1 37.6498 65.71 38.3998 65.71C40.8298 65.71 42.7998 67.68 42.7998 70.11C42.8098 72.53 40.8398 74.51 38.4098 74.51ZM1.36977 39.78H12.8998C13.5398 43.06 16.4298 45.54 19.8998 45.54C23.3598 45.54 26.2598 43.06 26.8898 39.78H38.4198C39.1698 39.78 39.7798 39.17 39.7798 38.42V25.65C39.7798 24.9 39.1698 24.29 38.4198 24.29C35.9898 24.29 34.0198 22.32 34.0198 19.89C34.0198 17.46 35.9898 15.49 38.4198 15.49C39.1698 15.49 39.7798 14.88 39.7798 14.13V1.37001C39.7798 0.620009 39.1698 0.0100098 38.4198 0.0100098H1.36977C0.619765 0.0100098 0.00976562 0.620009 0.00976562 1.37001V38.41C0.00976562 39.17 0.619765 39.78 1.36977 39.78ZM2.72977 2.73001H37.0498V12.9C33.7698 13.54 31.2898 16.43 31.2898 19.89C31.2898 23.35 33.7698 26.25 37.0498 26.88V37.04H25.6498C24.8998 37.04 24.2898 37.65 24.2898 38.4C24.2898 40.83 22.3198 42.8 19.8898 42.8C17.4598 42.8 15.4898 40.83 15.4898 38.4C15.4898 37.65 14.8798 37.04 14.1298 37.04H2.72977V2.73001Z" fill="#4343B9"/>
</svg>
