<svg width="66" height="67" viewBox="0 0 66 67" fill="none" xmlns="http://www.w3.org/2000/svg">
<path d="M62.7 7H31.6L28.6 2.4C28.6 2.4 28.6 2.3 28.5 2.3C27.2 0.8 25.4 0 23.4 0H2.1C0.9 0 0 0.9 0 2.1V47.5C0 49.3 1.5 50.7 3.3 50.7H22.4C23 50.7 23.4 50.3 23.4 49.7C23.4 49.1 23 48.7 22.4 48.7H3.3C2.6 48.7 2 48.2 2 47.5V18.7H64V47.5C64 48.2 63.4 48.7 62.7 48.7H60.9C60.3 48.7 59.9 49.1 59.9 49.7C59.9 50.3 60.3 50.7 60.9 50.7H62.7C64.5 50.7 66 49.3 66 47.5V10.3C66 9 64.6 7 62.7 7ZM2 16.7V2.1C2 2 2 2 2.1 2H23.4C24.8 2 26.1 2.6 26.9 3.6L30.2 8.6C30.4 8.9 30.7 9 31 9H62.6C63.3 9 63.9 9.9 63.9 10.2V16.7H2Z" fill="#4343B9"/>
<path d="M50.2999 41.8L61.0999 32C61.7999 31.4 62.1999 30.6 62.1999 29.7C62.1999 28.8 61.8999 27.9 61.2999 27.3L58.4999 24.2C57.1999 22.8 55.0999 22.7 53.6999 24L49.0999 28C49.0999 28 48.9999 28 48.9999 28.1L42.4999 34L31.2999 22.6C30.8999 22.2 30.2999 22.2 29.8999 22.6L19.4999 32.8C19.2999 33 19.1999 33.2 19.1999 33.5C19.1999 33.8 19.2999 34 19.4999 34.2L30.2999 45.1L22.8999 51.9L22.6999 52.1L15.6999 64.5C15.4999 64.9 15.4999 65.3 15.7999 65.7C16.0999 66 16.5999 66.1001 16.8999 65.9001L29.7999 60.2001C29.8999 60.2001 30.0999 60.1 30.1999 60L37.9999 52.9C38.6999 53.6 50.3999 65.5 50.3999 65.5C50.5999 65.7 50.8999 65.8001 51.0999 65.8001C51.3999 65.8001 51.5999 65.7 51.7999 65.5L62.1999 55.3C62.3999 55.1 62.4999 54.9 62.4999 54.6C62.4999 54.3 62.3999 54.1 62.1999 53.9L50.2999 41.8ZM47.0999 38.6L52.6999 33.6L54.3999 35.4001L48.8999 40.4L47.0999 38.6ZM54.9999 25.4C55.5999 24.9 56.3999 24.9 56.9999 25.5L59.7999 28.6C59.9999 28.9 60.1999 29.2 60.1999 29.6C60.1999 30 59.9999 30.3 59.7999 30.6L55.8999 34.1L53.5999 31.5L51.2999 28.9L54.9999 25.4ZM49.5999 30.3L51.2999 32.1L45.6999 37.2L43.9999 35.4001L49.5999 30.3ZM24.8999 52.7L31.6999 46.5L33.3999 48.2L26.4999 54.4001L24.8999 52.7ZM23.6999 54.3L27.8999 58.9001L18.8999 62.9001L23.6999 54.3ZM29.5999 57.8L27.7999 55.8L34.6999 49.6L36.4999 51.5L29.5999 57.8ZM51.1999 63.4001L48.6999 60.9001L54.4999 55.2001C54.8999 54.8001 54.8999 54.2 54.4999 53.8C54.0999 53.4 53.4999 53.4 53.0999 53.8L47.2999 59.5L44.7999 57L47.9999 53.8C48.3999 53.4 48.3999 52.8 47.9999 52.4C47.5999 52 46.9999 52 46.5999 52.4L43.3999 55.6L40.9999 53.1L46.7999 47.4C47.1999 47 47.1999 46.4 46.7999 46C46.3999 45.6 45.7999 45.6 45.3999 46L39.5999 51.7L37.1999 49.2L40.3999 46C40.7999 45.6 40.7999 45 40.3999 44.6C39.9999 44.2 39.3999 44.2 38.9999 44.6L35.7999 47.8L33.3999 45.3L39.1999 39.6C39.5999 39.2 39.5999 38.6 39.1999 38.2C38.7999 37.8 38.1999 37.8 37.7999 38.2L31.9999 43.9L29.5999 41.4L32.7999 38.2C33.1999 37.8 33.1999 37.2 32.7999 36.8C32.3999 36.4 31.7999 36.4 31.3999 36.8L27.9999 40L25.5999 37.5L31.3999 31.8C31.7999 31.4 31.7999 30.8 31.3999 30.4C30.9999 30 30.3999 30 29.9999 30.4L24.1999 36.1L21.6999 33.5L30.5999 24.7L48.0999 42.5L60.0999 54.7001L51.1999 63.4001Z" fill="#4343B9"/>
<path d="M5.7998 27.2H21.4998C22.0998 27.2 22.4998 26.8 22.4998 26.2C22.4998 25.6 22.0998 25.2 21.4998 25.2H5.7998C5.1998 25.2 4.7998 25.6 4.7998 26.2C4.7998 26.7 5.2998 27.2 5.7998 27.2Z" fill="#4343B9"/>
<path d="M5.7998 35.1001H16.4998C17.0998 35.1001 17.4998 34.7001 17.4998 34.1001C17.4998 33.5001 17.0998 33.1001 16.4998 33.1001H5.7998C5.1998 33.1001 4.7998 33.5001 4.7998 34.1001C4.7998 34.7001 5.2998 35.1001 5.7998 35.1001Z" fill="#4343B9"/>
<path d="M5.7998 43.1001H21.4998C22.0998 43.1001 22.4998 42.7001 22.4998 42.1001C22.4998 41.5001 22.0998 41.1001 21.4998 41.1001H5.7998C5.1998 41.1001 4.7998 41.5001 4.7998 42.1001C4.7998 42.6001 5.2998 43.1001 5.7998 43.1001Z" fill="#4343B9"/>
</svg>
