<svg width="24" height="24" viewBox="0 0 24 24" fill="none" xmlns="http://www.w3.org/2000/svg">
<g clip-path="url(#clip0_142_84)">
<path d="M11.8997 0C5.81405 4.36245e-07 6.19408 2.65238 6.19408 2.65238L6.20086 5.40021H12.0082V6.22524H3.8942C3.8942 6.22524 0 5.78138 0 11.9527C-4.34043e-07 18.1241 3.39894 17.9052 3.39894 17.9052H5.42745V15.0415C5.42745 15.0415 5.31811 11.6255 8.77212 11.6255H14.532C14.532 11.6255 17.7681 11.678 17.7681 8.48215V3.19785C17.7681 3.19785 18.2594 0 11.8997 0ZM8.69749 1.8478C9.27528 1.8478 9.74227 2.31714 9.74227 2.89784C9.74227 3.47854 9.27528 3.94788 8.69749 3.94788C8.1197 3.94788 7.6527 3.47854 7.6527 2.89784C7.6527 2.31714 8.1197 1.8478 8.69749 1.8478Z" fill="url(#paint0_linear_142_84)"/>
<path d="M12.0725 23.9674C18.1582 23.9674 17.7782 21.315 17.7782 21.315L17.7714 18.5672H11.964V17.7421H20.078C20.078 17.7421 23.9722 18.186 23.9722 12.0146C23.9722 5.84327 20.5733 6.06212 20.5733 6.06212H18.5448V8.92587C18.5448 8.92587 18.6541 12.3419 15.2001 12.3419H9.44023C9.44023 12.3419 6.20411 12.2893 6.20411 15.4852V20.7695C6.20411 20.7695 5.71278 23.9674 12.0725 23.9674ZM15.2747 22.1196C14.6969 22.1196 14.23 21.6502 14.23 21.0695C14.23 20.4888 14.6969 20.0195 15.2747 20.0195C15.8525 20.0195 16.3195 20.4888 16.3195 21.0695C16.3195 21.6502 15.8525 22.1196 15.2747 22.1196Z" fill="url(#paint1_linear_142_84)"/>
</g>
<defs>
<linearGradient id="paint0_linear_142_84" x1="230.377" y1="215.58" x2="1424.25" y2="1391.63" gradientUnits="userSpaceOnUse">
<stop stop-color="#387EB8"/>
<stop offset="1" stop-color="#366994"/>
</linearGradient>
<linearGradient id="paint1_linear_142_84" x1="346.224" y1="374.556" x2="1628.02" y2="1580.21" gradientUnits="userSpaceOnUse">
<stop stop-color="#FFE052"/>
<stop offset="1" stop-color="#FFC331"/>
</linearGradient>
<clipPath id="clip0_142_84">
<rect width="24" height="24" fill="white"/>
</clipPath>
</defs>
</svg>
