<svg width="24" height="24" viewBox="0 0 24 24" fill="none" xmlns="http://www.w3.org/2000/svg">
<path d="M19.7328 7.92108C19.4838 7.83539 19.2259 7.7543 18.9602 7.67762C19.0039 7.49943 19.044 7.32355 19.0796 7.15066C19.6644 4.31176 19.282 2.02473 17.9763 1.27174C16.7243 0.549721 14.6767 1.30254 12.6087 3.10226C12.4099 3.27533 12.2104 3.45855 12.0111 3.65058C11.8783 3.52353 11.7457 3.40075 11.6134 3.28331C9.44613 1.35893 7.27375 0.547969 5.96931 1.30314C4.71847 2.02725 4.34805 4.17728 4.87449 6.86773C4.92532 7.12759 4.98475 7.39297 5.05194 7.6628C4.74449 7.75007 4.44767 7.84312 4.16367 7.9421C1.62275 8.828 0 10.2164 0 11.6566C0 13.144 1.74202 14.6358 4.38859 15.5404C4.59745 15.6118 4.81417 15.6793 5.0375 15.7434C4.96501 16.0352 4.90195 16.3212 4.84903 16.6001C4.34707 19.2439 4.73906 21.3431 5.98656 22.0626C7.27512 22.8057 9.43767 22.0419 11.5435 20.2012C11.7099 20.0557 11.8769 19.9014 12.0443 19.7396C12.2611 19.9485 12.4777 20.1462 12.6931 20.3316C14.7328 22.0868 16.7473 22.7956 17.9937 22.0741C19.2809 21.3288 19.6993 19.0738 19.1561 16.3301C19.1147 16.1205 19.0664 15.9065 19.0122 15.6886C19.164 15.6437 19.3131 15.5973 19.4585 15.5492C22.2099 14.6375 24 13.1638 24 11.6566C24 10.2112 22.3249 8.81343 19.7328 7.92108ZM19.1361 14.5759C19.0048 14.6194 18.8702 14.6614 18.733 14.7021C18.4292 13.7405 18.0193 12.718 17.5176 11.6616C17.9963 10.6303 18.3904 9.62084 18.6857 8.66549C18.9312 8.73653 19.1695 8.81146 19.3991 8.89054C21.62 9.6551 22.9747 10.7855 22.9747 11.6566C22.9747 12.5844 21.5117 13.7888 19.1361 14.5759ZM18.1504 16.5292C18.3905 17.7424 18.4248 18.8393 18.2657 19.6968C18.1228 20.4673 17.8353 20.981 17.4799 21.1868C16.7236 21.6246 15.1061 21.0555 13.3617 19.5544C13.1618 19.3823 12.9603 19.1985 12.7583 19.0041C13.4345 18.2645 14.1104 17.4046 14.77 16.4497C15.9303 16.3467 17.0264 16.1784 18.0204 15.9486C18.0694 16.1461 18.1129 16.3398 18.1504 16.5292ZM8.18214 21.1111C7.44318 21.3721 6.85463 21.3795 6.49886 21.1744C5.74182 20.7378 5.42711 19.0523 5.8564 16.7913C5.90557 16.5324 5.96409 16.2664 6.03155 15.9946C7.0147 16.212 8.10281 16.3684 9.26581 16.4627C9.92989 17.3971 10.6253 18.256 11.3261 19.0081C11.1729 19.1559 11.0204 19.2966 10.8688 19.4292C9.93762 20.2431 9.0045 20.8206 8.18214 21.1111ZM4.72018 14.5703C3.54992 14.1703 2.58347 13.6504 1.92102 13.0831C1.32576 12.5733 1.02523 12.0672 1.02523 11.6566C1.02523 10.7826 2.32814 9.66792 4.50116 8.91027C4.76482 8.81834 5.04084 8.7317 5.32727 8.65032C5.62759 9.62725 6.02155 10.6487 6.49698 11.6815C6.0154 12.7297 5.61584 13.7674 5.31258 14.7558C5.10838 14.6971 4.91054 14.6353 4.72018 14.5703ZM5.88066 6.67083C5.42963 4.36572 5.72918 2.62683 6.48297 2.19048C7.28588 1.72564 9.06136 2.38841 10.9326 4.05002C11.0523 4.15622 11.1723 4.26738 11.2928 4.38238C10.5955 5.13114 9.90644 5.98359 9.24825 6.9125C8.11952 7.01712 7.03905 7.18518 6.04565 7.41023C5.98319 7.15899 5.92787 6.91216 5.88066 6.67083ZM16.2332 9.22717C15.9957 8.81697 15.7519 8.41647 15.5034 8.0269C16.2691 8.12371 17.0028 8.25221 17.6918 8.40946C17.4849 9.0724 17.2271 9.76554 16.9236 10.4761C16.7059 10.0628 16.4757 9.64605 16.2332 9.22717ZM12.0114 5.11512C12.4844 5.62747 12.9579 6.19949 13.4238 6.82014C12.9544 6.79796 12.4791 6.78643 12 6.78643C11.5254 6.78643 11.0537 6.79771 10.5872 6.8195C11.0535 6.20462 11.5312 5.63336 12.0114 5.11512ZM7.76268 9.23427C7.52546 9.64562 7.29947 10.0601 7.08519 10.4753C6.78662 9.76725 6.5312 9.07095 6.32255 8.39861C7.00731 8.24537 7.73752 8.12008 8.4984 8.02511C8.24635 8.41826 8.00054 8.8218 7.76268 9.23427ZM8.52031 15.3611C7.73418 15.2734 6.993 15.1546 6.30841 15.0056C6.52039 14.3212 6.78145 13.6101 7.08634 12.8867C7.30118 13.3017 7.52806 13.7163 7.76674 14.1286C8.00985 14.5486 8.26177 14.96 8.52031 15.3611ZM12.0398 18.2703C11.5539 17.746 11.0692 17.166 10.5958 16.5421C11.0553 16.5602 11.5238 16.5694 12 16.5694C12.4892 16.5694 12.9728 16.5584 13.4488 16.5372C12.9814 17.1723 12.5095 17.7531 12.0398 18.2703ZM16.9334 12.8499C17.2542 13.581 17.5246 14.2885 17.7393 14.9611C17.0434 15.1199 16.2921 15.2478 15.5005 15.3428C15.7497 14.9479 15.9956 14.5406 16.2373 14.1215C16.4818 13.6976 16.7139 13.273 16.9334 12.8499ZM15.3492 13.6093C14.974 14.2598 14.5889 14.8808 14.1978 15.467C13.4857 15.5179 12.7499 15.5441 12 15.5441C11.2531 15.5441 10.5266 15.5209 9.82706 15.4755C9.42029 14.8816 9.02675 14.2588 8.65398 13.6149C8.28219 12.9727 7.94009 12.3251 7.63003 11.6812C7.94001 11.0357 8.28129 10.3874 8.65095 9.74636L8.65086 9.74648C9.0215 9.10376 9.41157 8.48397 9.81459 7.89383C10.5284 7.83987 11.2603 7.81172 12 7.81172C12.743 7.81172 13.4759 7.84009 14.1894 7.89451C14.5863 8.48034 14.9737 9.09812 15.3458 9.74093C15.7221 10.391 16.0678 11.035 16.3804 11.6666C16.0688 12.3091 15.7238 12.9596 15.3492 13.6093ZM17.4642 2.15998C18.2679 2.62345 18.5804 4.49264 18.0755 6.94373C18.0433 7.10013 18.007 7.25943 17.9676 7.42087C16.9719 7.19112 15.8907 7.02015 14.7586 6.91395C14.0992 5.97483 13.4158 5.12106 12.7298 4.38191C12.9142 4.20449 13.0984 4.03532 13.2818 3.87568C15.0536 2.33368 16.7097 1.72487 17.4642 2.15998ZM12 9.5134C13.1836 9.5134 14.1431 10.4729 14.1431 11.6566C14.1431 12.8402 13.1836 13.7997 12 13.7997C10.8164 13.7997 9.85688 12.8402 9.85688 11.6566C9.85688 10.4729 10.8164 9.5134 12 9.5134Z" fill="#00D8FF"/>
</svg>
